<svg width="16" height="16" viewBox="0 0 16 16" fill="none" xmlns="http://www.w3.org/2000/svg">
<g clip-path="url(#clip0_4102_2239)">
<path d="M8 4C5.79333 4 4 5.79333 4 8C4 10.2067 5.79333 12 8 12C10.2067 12 12 10.2067 12 8C12 7.64 11.9467 7.3 11.86 6.96667L12.9067 5.92C13.18 6.56 13.3333 7.26 13.3333 8C13.3333 10.94 10.94 13.3333 8 13.3333C5.06 13.3333 2.66667 10.94 2.66667 8C2.66667 5.06 5.06 2.66667 8 2.66667C8.74 2.66667 9.44 2.82 10.08 3.09333L9.03333 4.14C8.70667 4.05333 8.36 4 8 4ZM14.4 6.15333C14.5733 6.74 14.6667 7.36 14.6667 8C14.6667 11.6733 11.6733 14.6667 8 14.6667C4.32667 14.6667 1.33333 11.6733 1.33333 8C1.33333 4.32667 4.32667 1.33333 8 1.33333C8.64 1.33333 9.26 1.42667 9.84667 1.6L10.8933 0.553333C9.99333 0.2 9.02 0 8 0C3.58667 0 0 3.58667 0 8C0 12.4133 3.58667 16 8 16C12.4133 16 16 12.4133 16 8C16 6.98 15.8 6 15.4467 5.10667L14.4 6.15333ZM7.82 5.35333C6.43333 5.44667 5.33333 6.59333 5.33333 8C5.33333 9.40667 6.52667 10.6667 8 10.6667C9.47333 10.6667 10.5533 9.56667 10.6467 8.18L9.88667 8.94C9.10667 9.72 7.84 9.72 7.06 8.94C6.28 8.16 6.28 6.89333 7.06 6.11333L7.82 5.35333ZM7.52667 7.53333L8.46667 8.47333L12.2733 4.66667H14L16 2.66667H13.3333V0L11.3333 2V3.72667L7.52667 7.53333Z" fill="#8D9BAD"/>
</g>
<defs>
<clipPath id="clip0_4102_2239">
<rect width="16" height="16" fill="white"/>
</clipPath>
</defs>
</svg>
