<svg width="16" height="16" viewBox="0 0 16 16" fill="none" xmlns="http://www.w3.org/2000/svg">
<g clip-path="url(#clip0_4102_2215)">
<path d="M7.33333 15.9802C5.39372 15.9802 3.53354 15.2097 2.16203 13.8382C0.79051 12.4666 0.0200005 10.6065 0.0200005 8.66685C0.0200005 6.72723 0.79051 4.86706 2.16203 3.49554C3.53354 2.12403 5.39372 1.35352 7.33333 1.35352H8L8.00867 2.02018L8 8.00018H14.6467V8.66685C14.6446 10.6058 13.8734 12.4648 12.5023 13.8358C11.1312 15.2069 9.2723 15.9781 7.33333 15.9802ZM6.67467 2.72352C5.55531 2.84767 4.49377 3.2854 3.61224 3.98631C2.7307 4.68722 2.06502 5.62282 1.69181 6.6854C1.3186 7.74799 1.25304 8.89436 1.50267 9.99257C1.75231 11.0908 2.30699 12.0962 3.10286 12.893C3.89874 13.6898 4.90345 14.2457 6.00136 14.4967C7.09926 14.7477 8.24572 14.6835 9.30875 14.3116C10.3718 13.9396 11.3082 13.2751 12.0102 12.3944C12.7121 11.5137 13.1512 10.4527 13.2767 9.33352H6.66667L6.67467 2.72352Z" fill="#8D9BAD"/>
<path d="M10.6793 1.52513C11.5951 1.76471 12.4306 2.2437 13.1 2.91291C13.7695 3.58213 14.2488 4.41745 14.4887 5.33313H10.6793V1.52513ZM9.346 0.0224609V6.66646H15.9913C15.9827 4.90678 15.2798 3.22164 14.0354 1.97746C12.791 0.733292 11.1057 0.0306982 9.346 0.0224609Z" fill="#8D9BAD"/>
</g>
<defs>
<clipPath id="clip0_4102_2215">
<rect width="16" height="16" fill="white"/>
</clipPath>
</defs>
</svg>
