<svg width="16" height="16" viewBox="0 0 16 16" fill="none" xmlns="http://www.w3.org/2000/svg">
<g clip-path="url(#clip0_4102_2192)">
<path d="M7 3.33333C7.92048 3.33333 8.66667 2.58714 8.66667 1.66667C8.66667 0.746192 7.92048 0 7 0C6.07953 0 5.33333 0.746192 5.33333 1.66667C5.33333 2.58714 6.07953 3.33333 7 3.33333Z" fill="#8D9BAD"/>
<path d="M4 1.33301H0V7.99967H4V1.33301ZM1.33333 2.66634H2.66667V3.99967H1.33333V2.66634ZM2.66667 6.66634H1.33333V5.33301H2.66667V6.66634Z" fill="#8D9BAD"/>
<path d="M14.6667 11.5674V11.0001L13.1793 5.33342H10.7953L7.58133 4.04742C6.972 3.87942 6.28933 4.05476 5.86667 4.42476C5.52267 4.72476 5.334 5.15276 5.334 5.63076V8.48209C5.334 9.23276 5.74867 9.91409 6.41867 10.2601L8.66733 11.4081V13.3334H7.334V14.6668H11.568C11.944 15.4521 12.74 16.0001 13.6673 16.0001C14.954 16.0001 16.0007 14.9534 16.0007 13.6668C16.0007 12.7394 15.452 11.9434 14.6667 11.5674ZM6.66667 8.48209V5.63076C6.66667 5.51142 6.70533 5.46209 6.74333 5.42876C6.83267 5.35076 6.99 5.30809 7.17267 5.32076L7.33333 5.38476V9.23076L7.02733 9.07476C6.80467 8.95942 6.66667 8.73276 6.66667 8.48209ZM11.3673 13.3334H10V10.5921L8.66667 9.91142V5.91809L10.5387 6.66676H12.1547L13.334 11.0874V11.3674C12.316 11.5148 11.5147 12.3161 11.3673 13.3334ZM13.6667 14.6668C13.1153 14.6668 12.6667 14.2181 12.6667 13.6668C12.6667 13.1154 13.1153 12.6668 13.6667 12.6668C14.218 12.6668 14.6667 13.1154 14.6667 13.6668C14.6667 14.2181 14.218 14.6668 13.6667 14.6668Z" fill="#8D9BAD"/>
<path d="M5.54667 11.4157L4.18867 9.33301H0V10.6663H1.13733C0.449333 11.2163 0 12.0523 0 12.9997C0 14.6537 1.346 15.9997 3 15.9997C4.654 15.9997 6 14.6537 6 12.9997C6 12.4183 5.82667 11.8803 5.53933 11.4203L5.54667 11.4157ZM3 14.6663C2.08067 14.6663 1.33333 13.9183 1.33333 12.9997C1.33333 12.081 2.08067 11.333 3 11.333C3.92467 11.333 4.66733 12.0917 4.66667 12.9997C4.66667 13.9183 3.91933 14.6663 3 14.6663Z" fill="#8D9BAD"/>
</g>
<defs>
<clipPath id="clip0_4102_2192">
<rect width="16" height="16" fill="white"/>
</clipPath>
</defs>
</svg>
