<svg width="16" height="16" viewBox="0 0 16 16" fill="none" xmlns="http://www.w3.org/2000/svg">
<path d="M4.66667 8H11.3333V9.33333H4.66667V8ZM4.66667 12H9.33333V10.6667H4.66667V12ZM14.6667 5.05733V16H1.33333V2C1.33333 1.46957 1.54405 0.960859 1.91912 0.585786C2.29419 0.210714 2.8029 0 3.33333 0L9.60933 0L14.6667 5.05733ZM10 4.66667H12.3907L10 2.276V4.66667ZM13.3333 14.6667V6H8.66667V1.33333H3.33333C3.15652 1.33333 2.98695 1.40357 2.86193 1.5286C2.73691 1.65362 2.66667 1.82319 2.66667 2V14.6667H13.3333Z" fill="#8D9BAD"/>
</svg>
