<svg width="24" height="24" viewBox="0 0 24 24" fill="none" xmlns="http://www.w3.org/2000/svg">
<g clip-path="url(#clip0_4102_2293)">
<path d="M22.829 9.17241L18.95 5.29341C18.7614 5.11125 18.5088 5.01045 18.2466 5.01273C17.9844 5.01501 17.7336 5.12018 17.5482 5.30559C17.3628 5.491 17.2576 5.74181 17.2553 6.00401C17.253 6.2662 17.3538 6.5188 17.536 6.70741L21.415 10.5864C21.5302 10.7039 21.631 10.8349 21.715 10.9764C21.7 10.9764 21.688 10.9684 21.673 10.9684L5.989 11.0004C5.72378 11.0004 5.46943 11.1058 5.28189 11.2933C5.09436 11.4808 4.989 11.7352 4.989 12.0004C4.989 12.2656 5.09436 12.52 5.28189 12.7075C5.46943 12.8951 5.72378 13.0004 5.989 13.0004L21.667 12.9684C21.695 12.9684 21.718 12.9544 21.745 12.9524C21.6563 13.1216 21.5438 13.2771 21.411 13.4144L17.532 17.2934C17.4365 17.3857 17.3603 17.496 17.3079 17.618C17.2555 17.74 17.2279 17.8712 17.2267 18.004C17.2256 18.1368 17.2509 18.2685 17.3012 18.3914C17.3515 18.5143 17.4257 18.6259 17.5196 18.7198C17.6135 18.8137 17.7251 18.8879 17.848 18.9382C17.9709 18.9885 18.1026 19.0138 18.2354 19.0127C18.3682 19.0115 18.4994 18.9839 18.6214 18.9315C18.7434 18.8791 18.8538 18.8029 18.946 18.7074L22.825 14.8284C23.5749 14.0783 23.9961 13.0611 23.9961 12.0004C23.9961 10.9398 23.5749 9.92252 22.825 9.17241H22.829Z" fill="#8D9BAD"/>
<path d="M7 22H5C4.20435 22 3.44129 21.6839 2.87868 21.1213C2.31607 20.5587 2 19.7956 2 19V5C2 4.20435 2.31607 3.44129 2.87868 2.87868C3.44129 2.31607 4.20435 2 5 2H7C7.26522 2 7.51957 1.89464 7.70711 1.70711C7.89464 1.51957 8 1.26522 8 1C8 0.734784 7.89464 0.48043 7.70711 0.292893C7.51957 0.105357 7.26522 0 7 0L5 0C3.67441 0.00158786 2.40356 0.528882 1.46622 1.46622C0.528882 2.40356 0.00158786 3.67441 0 5L0 19C0.00158786 20.3256 0.528882 21.5964 1.46622 22.5338C2.40356 23.4711 3.67441 23.9984 5 24H7C7.26522 24 7.51957 23.8946 7.70711 23.7071C7.89464 23.5196 8 23.2652 8 23C8 22.7348 7.89464 22.4804 7.70711 22.2929C7.51957 22.1054 7.26522 22 7 22Z" fill="#8D9BAD"/>
</g>
<defs>
<clipPath id="clip0_4102_2293">
<rect width="24" height="24" fill="white"/>
</clipPath>
</defs>
</svg>
