<svg width="16" height="14" viewBox="0 0 16 14" fill="none" xmlns="http://www.w3.org/2000/svg">
<path d="M13.99 6.94933V6C13.99 4.4087 13.3579 2.88258 12.2327 1.75736C11.1075 0.632141 9.58134 0 7.99004 0C6.39874 0 4.87262 0.632141 3.7474 1.75736C2.62218 2.88258 1.99004 4.4087 1.99004 6V6.94933C1.29081 7.25722 0.718572 7.79597 0.36912 8.47538C0.0196671 9.15479 -0.0857873 9.93362 0.0704104 10.6815C0.226608 11.4294 0.634977 12.1009 1.22715 12.5836C1.81933 13.0664 2.55936 13.331 3.32337 13.3333H4.6567V6.66667H3.32337V6C3.32337 4.76232 3.81504 3.57534 4.69021 2.70017C5.56538 1.825 6.75236 1.33333 7.99004 1.33333C9.22771 1.33333 10.4147 1.825 11.2899 2.70017C12.165 3.57534 12.6567 4.76232 12.6567 6V6.66667H11.3234V12H8.6567V13.3333H12.6567C13.4207 13.331 14.1607 13.0664 14.7529 12.5836C15.3451 12.1009 15.7535 11.4294 15.9097 10.6815C16.0659 9.93362 15.9604 9.15479 15.611 8.47538C15.2615 7.79597 14.6893 7.25722 13.99 6.94933ZM3.32337 12C2.79294 12 2.28423 11.7893 1.90916 11.4142C1.53409 11.0391 1.32337 10.5304 1.32337 10C1.32337 9.46957 1.53409 8.96086 1.90916 8.58579C2.28423 8.21071 2.79294 8 3.32337 8V12ZM12.6567 12V8C13.1871 8 13.6958 8.21071 14.0709 8.58579C14.446 8.96086 14.6567 9.46957 14.6567 10C14.6567 10.5304 14.446 11.0391 14.0709 11.4142C13.6958 11.7893 13.1871 12 12.6567 12Z" fill="#8D9BAD"/>
</svg>
