<svg width="16" height="16" viewBox="0 0 16 16" fill="none" xmlns="http://www.w3.org/2000/svg">
<path d="M0 2V6H7.33333V0H2C0.897333 0 0 0.897333 0 2ZM6 4.66667H1.33333V2C1.33333 1.632 1.632 1.33333 2 1.33333H6V4.66667ZM8.66667 16H14C15.1027 16 16 15.1027 16 14V10H8.66667V16ZM10 11.3333H14.6667V14C14.6667 14.368 14.368 14.6667 14 14.6667H10V11.3333ZM14 0H8.66667V8.66667H16V2C16 0.897333 15.1027 0 14 0ZM14.6667 7.33333H10V1.33333H14C14.368 1.33333 14.6667 1.632 14.6667 2V7.33333ZM0 14C0 15.1027 0.897333 16 2 16H7.33333V7.33333H0V14ZM1.33333 8.66667H6V14.6667H2C1.632 14.6667 1.33333 14.368 1.33333 14V8.66667Z" fill="#8D9BAD"/>
</svg>
