<svg width="16" height="16" viewBox="0 0 16 16" fill="none" xmlns="http://www.w3.org/2000/svg">
<path d="M15.3333 12.6662V11.3329C15.3309 9.50441 14.6461 7.7427 13.4131 6.3926C12.18 5.04251 10.4874 4.20125 8.66667 4.03352V3.14819C8.92086 3.00143 9.11952 2.7749 9.23184 2.50373C9.34416 2.23256 9.36387 1.93191 9.2879 1.6484C9.21194 1.36489 9.04454 1.11436 8.81168 0.935685C8.57882 0.757006 8.29351 0.660156 8 0.660156C7.70649 0.660156 7.42118 0.757006 7.18832 0.935685C6.95546 1.11436 6.78807 1.36489 6.7121 1.6484C6.63613 1.93191 6.65584 2.23256 6.76816 2.50373C6.88048 2.7749 7.07914 3.00143 7.33333 3.14819V4.03352C5.51259 4.20125 3.82001 5.04251 2.58694 6.3926C1.35386 7.7427 0.669088 9.50441 0.666667 11.3329V12.6662H0V13.9995H16V12.6662H15.3333ZM2 11.3329C2.31533 3.37686 13.6873 3.38286 14 11.3329V12.6662H2V11.3329Z" fill="#8D9BAD"/>
</svg>
