<svg width="16" height="16" viewBox="0 0 16 16" fill="none" xmlns="http://www.w3.org/2000/svg">
<path d="M16.0111 15.0679L11.8365 10.8933C12.9209 9.56699 13.4541 7.87466 13.3257 6.1663C13.1974 4.45795 12.4173 2.86428 11.1469 1.71494C9.87645 0.565604 8.21287 -0.051475 6.50024 -0.00865379C4.78761 0.0341674 3.15695 0.733612 1.94555 1.94501C0.734162 3.1564 0.0347167 4.78706 -0.00810448 6.49969C-0.0509257 8.21233 0.566153 9.8759 1.71549 11.1463C2.86483 12.4167 4.4585 13.1968 6.16685 13.3252C7.87521 13.4535 9.56754 12.9203 10.8938 11.8359L15.0685 16.0106L16.0111 15.0679ZM6.67781 12.0106C5.62298 12.0106 4.59183 11.6978 3.71477 11.1118C2.83771 10.5257 2.15412 9.69278 1.75046 8.71824C1.34679 7.7437 1.24117 6.67135 1.44696 5.63678C1.65275 4.60222 2.1607 3.65191 2.90658 2.90603C3.65246 2.16015 4.60277 1.6522 5.63733 1.44641C6.6719 1.24062 7.74425 1.34624 8.71879 1.74991C9.69333 2.15357 10.5263 2.83716 11.1123 3.71422C11.6984 4.59128 12.0111 5.62243 12.0111 6.67726C12.0096 8.09126 11.4471 9.4469 10.4473 10.4467C9.44744 11.4466 8.09181 12.009 6.67781 12.0106Z" fill="#8D9BAD"/>
</svg>
