<svg width="16" height="16" viewBox="0 0 16 16" fill="none" xmlns="http://www.w3.org/2000/svg">
<path d="M9.92867 16H5.92867V13.658C5.2335 13.412 4.58964 13.04 4.02933 12.5607L2 13.7333L0 10.2667L2.02867 9.09667C1.89541 8.37163 1.89541 7.62837 2.02867 6.90333L0 5.73333L2 2.26667L4.02933 3.43933C4.58964 2.95995 5.2335 2.58796 5.92867 2.342V0H9.92867V2.342C10.6238 2.58796 11.2677 2.95995 11.828 3.43933L13.8573 2.26667L15.8573 5.73333L13.8287 6.90333C13.9619 7.62837 13.9619 8.37163 13.8287 9.09667L15.8573 10.2667L13.8573 13.7333L11.828 12.5613C11.2676 13.0405 10.6238 13.4122 9.92867 13.658V16ZM7.262 14.6667H8.59533V12.6487L9.096 12.5193C9.91734 12.3066 10.6649 11.8734 11.258 11.2667L11.62 10.898L13.3687 11.908L14.0353 10.7533L12.2887 9.74467L12.426 9.24733C12.6518 8.42929 12.6518 7.56538 12.426 6.74733L12.2887 6.25L14.0353 5.24133L13.3687 4.08667L11.62 5.09933L11.258 4.73333C10.6646 4.12756 9.91705 3.69535 9.096 3.48333L8.59533 3.35133V1.33333H7.262V3.35133L6.76133 3.48067C5.93999 3.69343 5.1924 4.12659 4.59933 4.73333L4.23733 5.102L2.48867 4.08933L1.822 5.244L3.56867 6.25267L3.43133 6.75C3.20557 7.56804 3.20557 8.43196 3.43133 9.25L3.56867 9.74733L1.822 10.756L2.48867 11.9107L4.23733 10.9007L4.59933 11.2693C5.19272 11.8751 5.94028 12.3073 6.76133 12.5193L7.262 12.6487V14.6667ZM7.92867 10.6667C7.40125 10.6667 6.88568 10.5103 6.44715 10.2173C6.00862 9.92424 5.66682 9.50776 5.46499 9.02049C5.26315 8.53322 5.21035 7.99704 5.31324 7.47976C5.41613 6.96248 5.67011 6.48732 6.04305 6.11438C6.41599 5.74144 6.89114 5.48747 7.40843 5.38457C7.92571 5.28168 8.46189 5.33449 8.94916 5.53632C9.43643 5.73815 9.8529 6.07995 10.1459 6.51848C10.4389 6.95701 10.5953 7.47258 10.5953 8C10.5953 8.70724 10.3144 9.38552 9.81429 9.88562C9.31419 10.3857 8.63591 10.6667 7.92867 10.6667ZM7.92867 6.66667C7.66496 6.66667 7.40717 6.74487 7.18791 6.89137C6.96864 7.03788 6.79774 7.24612 6.69683 7.48976C6.59591 7.73339 6.56951 8.00148 6.62095 8.26012C6.6724 8.51876 6.79939 8.75634 6.98586 8.94281C7.17233 9.12928 7.4099 9.25627 7.66855 9.30771C7.92719 9.35916 8.19528 9.33276 8.43891 9.23184C8.68255 9.13092 8.89078 8.96003 9.03729 8.74076C9.1838 8.52149 9.262 8.26371 9.262 8C9.262 7.64638 9.12152 7.30724 8.87148 7.05719C8.62143 6.80714 8.28229 6.66667 7.92867 6.66667Z" fill="#8D9BAD"/>
</svg>
