<svg width="16" height="16" viewBox="0 0 16 16" fill="none" xmlns="http://www.w3.org/2000/svg">
<g clip-path="url(#clip0_4102_2203)">
<path d="M12.7627 10L14.28 6.96467L13.0873 6.368L11.2713 9.99933H7.42867L8.058 14.2893C8.20067 15.264 9.05133 15.9993 10.0367 15.9993H13.3327C14.318 15.9993 15.168 15.264 15.3107 14.2907L15.9413 9.99933H12.762L12.7627 10ZM13.992 14.0973C13.9447 14.422 13.6613 14.6667 13.3333 14.6667H10.0373C9.70933 14.6667 9.426 14.4213 9.378 14.0967L8.97267 11.3333H14.3987L13.992 14.0973ZM5.33333 8C7.53933 8 9.33333 6.206 9.33333 4C9.33333 1.794 7.53933 0 5.33333 0C3.12733 0 1.33333 1.794 1.33333 4C1.33333 6.206 3.12733 8 5.33333 8ZM5.33333 1.33333C6.804 1.33333 8 2.52933 8 4C8 5.47067 6.804 6.66667 5.33333 6.66667C3.86267 6.66667 2.66667 5.47067 2.66667 4C2.66667 2.52933 3.86267 1.33333 5.33333 1.33333ZM5.984 9.33333L6.18 10.6667H3.33333C2.23067 10.6667 1.33333 11.564 1.33333 12.6667V16H0V12.6667C0 10.8287 1.49533 9.33333 3.33333 9.33333H5.984Z" fill="#8D9BAD"/>
</g>
<defs>
<clipPath id="clip0_4102_2203">
<rect width="16" height="16" fill="white"/>
</clipPath>
</defs>
</svg>
